<svg width="14" height="14" viewBox="0 0 14 14" fill="none" xmlns="http://www.w3.org/2000/svg">
<path d="M6.99905 6.91463C6.04517 6.91463 5.26529 6.61168 4.65938 6.00578C4.05348 5.39987 3.75053 4.61998 3.75053 3.66609C3.75053 2.71222 4.05348 1.93199 4.65938 1.3254C5.26529 0.718819 6.04517 0.415527 6.99905 0.415527C7.95292 0.415527 8.73399 0.718819 9.34224 1.3254C9.95049 1.93199 10.2546 2.71222 10.2546 3.66609C10.2546 4.61998 9.95049 5.39987 9.34224 6.00578C8.73399 6.61168 7.95292 6.91463 6.99905 6.91463ZM0.208862 13.8562V11.7644C0.208862 11.215 0.347161 10.7425 0.623758 10.3469C0.900355 9.95122 1.25753 9.65075 1.69528 9.44544C2.63247 9.02544 3.53306 8.71045 4.39705 8.50047C5.26105 8.29046 6.12828 8.18546 6.99874 8.18546C7.87556 8.18546 8.74218 8.29394 9.59859 8.51088C10.455 8.72781 11.3496 9.04068 12.2824 9.44949C12.7391 9.65218 13.1056 9.95074 13.3818 10.3452C13.6581 10.7396 13.7963 11.2123 13.7963 11.7631V13.8562H0.208862ZM1.62824 12.4368H12.3719V11.7833C12.3719 11.5632 12.3059 11.3534 12.174 11.1537C12.042 10.9541 11.8788 10.8062 11.6844 10.7099C10.8088 10.2893 10.0071 10.0008 9.2793 9.84444C8.55151 9.68804 7.79095 9.60984 6.99761 9.60984C6.2109 9.60984 5.44504 9.68804 4.70003 9.84444C3.95501 10.0008 3.15402 10.2891 2.29705 10.7092C2.10117 10.8054 1.94074 10.9535 1.81574 11.1532C1.69074 11.353 1.62824 11.563 1.62824 11.7833V12.4368ZM6.99905 5.49526C7.52811 5.49526 7.96557 5.32258 8.31145 4.97721C8.65731 4.63187 8.83024 4.19455 8.83024 3.66526C8.83024 3.1346 8.65764 2.69689 8.31245 2.35211C7.96727 2.00732 7.53015 1.83492 7.00109 1.83492C6.47204 1.83492 6.03457 2.0074 5.6887 2.35234C5.34283 2.69727 5.1699 3.13409 5.1699 3.6628C5.1699 4.19287 5.3425 4.63079 5.6877 4.97657C6.03288 5.32236 6.46999 5.49526 6.99905 5.49526Z" fill="black"/>
</svg>
