<svg width="19" height="14" viewBox="0 0 19 14" fill="none" xmlns="http://www.w3.org/2000/svg">
<path d="M15.25 13.9167L14.0833 12.75L15 11.8333H8.83329C8.66663 12.3333 8.36802 12.7361 7.93746 13.0417C7.5069 13.3472 7.02774 13.5 6.49996 13.5C5.97218 13.5 5.49649 13.3472 5.07288 13.0417C4.64927 12.7361 4.34718 12.3333 4.16663 11.8333H3.16663C2.47218 11.8333 1.8819 11.5903 1.39579 11.1042C0.909682 10.6181 0.666626 10.0278 0.666626 9.33333V4.33333H5.66663V1.83333H0.666626V0.166664H11.5C11.9583 0.166664 12.3507 0.329859 12.677 0.656247C13.0034 0.982636 13.1666 1.375 13.1666 1.83333V10.1667H14.9583L14.0833 9.29166L15.25 8.08333L18.1666 11L15.25 13.9167ZM7.33329 4.33333H11.5V1.83333H7.33329V4.33333ZM6.49996 11.8333C6.73607 11.8333 6.93399 11.7535 7.09371 11.5937C7.25343 11.434 7.33329 11.2361 7.33329 11C7.33329 10.7639 7.25343 10.566 7.09371 10.4062C6.93399 10.2465 6.73607 10.1667 6.49996 10.1667C6.26385 10.1667 6.06593 10.2465 5.90621 10.4062C5.74649 10.566 5.66663 10.7639 5.66663 11C5.66663 11.2361 5.74649 11.434 5.90621 11.5937C6.06593 11.7535 6.26385 11.8333 6.49996 11.8333ZM4.16663 10.1667C4.34718 9.66666 4.64927 9.26389 5.07288 8.95833C5.49649 8.65278 5.97218 8.5 6.49996 8.5C7.02774 8.5 7.5069 8.65278 7.93746 8.95833C8.36802 9.26389 8.66663 9.66666 8.83329 10.1667H11.5V6H2.33329V9.33333C2.33329 9.56944 2.41315 9.76736 2.57288 9.92708C2.7326 10.0868 2.93052 10.1667 3.16663 10.1667H4.16663ZM4.16663 6H2.33329H11.5H4.16663Z" fill="black"/>
</svg>
