<svg width="18" height="20" viewBox="0 0 18 20" fill="none" xmlns="http://www.w3.org/2000/svg">
<path d="M1.5 20C1.08333 20 0.729167 19.8542 0.4375 19.5625C0.145833 19.2708 0 18.9167 0 18.5V3.5C0 3.08333 0.145833 2.72917 0.4375 2.4375C0.729167 2.14583 1.08333 2 1.5 2H6.625C6.70833 1.41667 6.975 0.9375 7.425 0.5625C7.875 0.1875 8.4 0 9 0C9.6 0 10.125 0.1875 10.575 0.5625C11.025 0.9375 11.2917 1.41667 11.375 2H16.5C16.9167 2 17.2708 2.14583 17.5625 2.4375C17.8542 2.72917 18 3.08333 18 3.5V18.5C18 18.9167 17.8542 19.2708 17.5625 19.5625C17.2708 19.8542 16.9167 20 16.5 20H1.5ZM1.5 18.5H16.5V3.5H1.5V18.5ZM4 16H10.825V14.5H4V16ZM4 11.75H14V10.25H4V11.75ZM4 7.5H14V6H4V7.5ZM9 3.075C9.23333 3.075 9.4375 2.9875 9.6125 2.8125C9.7875 2.6375 9.875 2.43333 9.875 2.2C9.875 1.96667 9.7875 1.7625 9.6125 1.5875C9.4375 1.4125 9.23333 1.325 9 1.325C8.76667 1.325 8.5625 1.4125 8.3875 1.5875C8.2125 1.7625 8.125 1.96667 8.125 2.2C8.125 2.43333 8.2125 2.6375 8.3875 2.8125C8.5625 2.9875 8.76667 3.075 9 3.075ZM1.5 18.5V3.5V18.5Z" fill="#676666"/>
</svg>
