<svg width="10" height="18" viewBox="0 0 10 18" fill="none" xmlns="http://www.w3.org/2000/svg">
<path d="M5.00065 17.3346C3.84787 17.3346 2.86523 16.9284 2.05273 16.1159C1.24023 15.3034 0.833984 14.3207 0.833984 13.168C0.833984 12.5013 0.979818 11.8798 1.27148 11.3034C1.56315 10.727 1.97287 10.2374 2.50065 9.83463V3.16797C2.50065 2.47352 2.74371 1.88325 3.22982 1.39714C3.71593 0.911024 4.30621 0.667969 5.00065 0.667969C5.6951 0.667969 6.28537 0.911024 6.77148 1.39714C7.2576 1.88325 7.50065 2.47352 7.50065 3.16797V9.83463C8.02843 10.2374 8.43815 10.727 8.72982 11.3034C9.02148 11.8798 9.16732 12.5013 9.16732 13.168C9.16732 14.3207 8.76107 15.3034 7.94857 16.1159C7.13607 16.9284 6.15343 17.3346 5.00065 17.3346ZM4.16732 8.16797H5.83398V7.33463H5.00065V6.5013H5.83398V4.83464H5.00065V4.0013H5.83398V3.16797C5.83398 2.93186 5.75412 2.73394 5.5944 2.57422C5.43468 2.4145 5.23676 2.33464 5.00065 2.33464C4.76454 2.33464 4.56662 2.4145 4.4069 2.57422C4.24718 2.73394 4.16732 2.93186 4.16732 3.16797V8.16797Z" fill="black"/>
</svg>
